<?xml version="1.0" standalone="no"?>
<!DOCTYPE svg PUBLIC "-//W3C//DTD SVG 20010904//EN"
 "http://www.w3.org/TR/2001/REC-SVG-20010904/DTD/svg10.dtd">
<svg version="1.0" xmlns="http://www.w3.org/2000/svg"
 width="150.000000pt" height="150.000000pt" viewBox="0 0 150.000000 150.000000"
 preserveAspectRatio="xMidYMid meet">

<g transform="translate(0.000000,150.000000) scale(0.100000,-0.100000)"
fill="#000000" stroke="none">
<path d="M710 1427 c-36 -22 -50 -47 -27 -47 8 0 7 -4 -3 -10 -11 -7 -11 -10
-2 -10 7 0 26 14 42 30 17 17 30 27 30 23 0 -4 4 -1 9 7 10 14 6 31 -7 29 -4
0 -23 -11 -42 -22z"/>
<path d="M582 1288 c-36 -54 -65 -108 -59 -114 2 -3 10 9 17 26 14 33 30 40
31 13 0 -12 2 -13 6 -5 3 7 0 19 -6 26 -15 18 4 36 38 36 5 0 11 14 13 30 6
41 -6 38 -40 -12z"/>
<path d="M715 1280 c-3 -5 -1 -10 4 -10 6 0 11 5 11 10 0 6 -2 10 -4 10 -3 0
-8 -4 -11 -10z"/>
<path d="M780 1273 c0 -6 8 -17 18 -24 16 -13 16 -13 2 6 -8 11 -16 22 -17 24
-2 2 -3 0 -3 -6z"/>
<path d="M679 1225 c-22 -36 -24 -51 -5 -33 8 7 12 15 11 18 -2 3 1 12 6 20 8
13 10 13 18 1 7 -11 11 -10 20 7 19 35 -29 23 -50 -13z"/>
<path d="M810 1220 c0 -5 5 -10 11 -10 5 0 7 5 4 10 -3 6 -8 10 -11 10 -2 0
-4 -4 -4 -10z"/>
<path d="M789 1202 c7 -12 17 -20 22 -16 6 3 9 7 7 8 -2 1 -12 8 -22 16 -18
14 -19 14 -7 -8z"/>
<path d="M680 1166 c0 -8 -5 -16 -11 -18 -6 -2 12 -5 40 -6 38 -1 51 2 51 12
0 8 6 17 13 19 6 3 -12 6 -40 6 -39 1 -53 -3 -53 -13z"/>
<path d="M535 1160 c-4 -6 -11 -7 -17 -4 -6 4 -9 1 -6 -7 3 -8 -1 -20 -9 -27
-7 -7 -12 -23 -12 -35 1 -17 2 -18 6 -4 2 9 9 17 14 17 5 0 9 7 9 15 0 9 6 18
14 21 17 6 30 34 16 34 -5 0 -12 -5 -15 -10z"/>
<path d="M840 1155 c0 -8 6 -15 13 -16 6 -1 24 -2 40 -3 33 -3 37 19 5 28 -38
10 -58 7 -58 -9z"/>
<path d="M966 1156 c21 -15 30 -14 19 3 -3 6 -14 11 -23 11 -13 0 -13 -2 4
-14z"/>
<path d="M632 1140 c0 -14 2 -19 5 -12 2 6 2 18 0 25 -3 6 -5 1 -5 -13z"/>
<path d="M775 1150 c-3 -5 1 -10 9 -10 9 0 16 5 16 10 0 6 -4 10 -9 10 -6 0
-13 -4 -16 -10z"/>
<path d="M993 1100 c1 -18 19 -31 41 -29 5 0 13 -5 17 -13 7 -10 9 -10 9 2 0
13 1 13 10 0 9 -13 10 -13 10 1 0 8 -18 25 -41 37 -50 27 -48 27 -46 2z"/>
<path d="M605 1084 c-13 -49 -13 -84 1 -102 12 -15 13 -14 14 11 0 15 3 26 8
26 28 -5 52 3 52 17 0 9 6 14 13 11 6 -2 11 -10 9 -16 -1 -7 2 -10 8 -6 5 3
10 12 10 20 0 7 12 16 28 18 27 4 27 4 -3 5 -16 0 -41 -3 -55 -7 -20 -6 -30
-2 -51 23 l-26 30 -8 -30z"/>
<path d="M421 1074 c-7 -8 -11 -17 -9 -20 3 -2 13 5 23 16 10 11 14 20 9 20
-5 -1 -15 -8 -23 -16z"/>
<path d="M880 1035 c0 -8 -7 -15 -15 -15 -26 0 16 -36 45 -38 14 -1 40 -4 58
-6 50 -6 47 10 -5 34 -27 12 -56 26 -65 31 -14 7 -18 5 -18 -6z"/>
<path d="M326 992 c-27 -29 -27 -32 -12 -53 9 -14 16 -18 16 -10 0 8 7 22 16
32 8 9 14 27 12 39 -3 21 -4 20 -32 -8z"/>
<path d="M584 963 c3 -15 8 -40 12 -55 4 -19 2 -28 -6 -28 -7 0 -9 -8 -5 -20
5 -16 2 -20 -14 -20 -41 0 -20 -17 23 -18 37 -2 45 1 49 19 4 15 2 19 -9 15
-8 -3 -14 -1 -14 5 0 6 -4 7 -10 4 -6 -4 -8 7 -4 27 3 18 6 40 8 48 1 8 -6 23
-17 33 -18 18 -18 18 -13 -10z"/>
<path d="M425 929 c-25 -23 -45 -46 -45 -52 0 -6 6 -4 13 5 6 9 31 18 54 20
43 3 43 3 40 -29 -1 -18 -8 -33 -14 -33 -7 0 -13 -4 -13 -10 0 -5 2 -10 4 -10
2 0 11 -2 19 -5 11 -5 14 7 16 55 1 44 -2 60 -10 55 -8 -6 -8 -2 0 14 10 18 9
20 -5 14 -12 -4 -15 -3 -10 5 14 23 -5 12 -49 -29z"/>
<path d="M1035 949 c-10 -15 3 -25 16 -12 7 7 7 13 1 17 -6 3 -14 1 -17 -5z"/>
<path d="M253 881 c-3 -14 -11 -29 -17 -33 -8 -6 -7 -11 3 -17 11 -7 10 -13
-4 -35 -10 -14 -21 -26 -26 -26 -19 0 -8 -26 11 -27 16 -1 20 4 20 27 0 15 3
30 8 32 4 2 15 20 24 40 13 27 14 38 5 42 -9 3 -9 5 1 5 18 1 15 18 -3 18 -9
0 -18 -12 -22 -26z"/>
<path d="M1078 898 c7 -7 12 -22 12 -34 0 -11 12 -34 26 -49 31 -34 19 -55
-20 -37 -26 12 -33 8 -32 -18 1 -18 56 -22 69 -6 5 6 5 1 2 -11 -7 -25 9 -30
35 -13 13 9 13 12 -3 24 -11 9 -14 15 -7 18 8 2 5 18 -10 47 -17 32 -25 39
-32 29 -7 -9 -8 -8 -4 6 7 19 -18 56 -38 56 -6 0 -5 -5 2 -12z"/>
<path d="M914 887 c-2 -7 0 -24 5 -38 9 -22 10 -21 10 14 1 37 -5 48 -15 24z"/>
<path d="M1225 860 c-3 -5 1 -10 9 -10 9 0 16 -5 16 -11 0 -5 -4 -7 -10 -4
-12 8 -13 10 8 -51 11 -30 23 -49 30 -46 7 2 12 8 12 13 0 6 -5 7 -11 3 -8 -4
-9 3 -4 25 11 52 -28 116 -50 81z"/>
<path d="M722 840 c-7 -11 -8 -20 -4 -20 5 0 17 9 27 20 14 15 15 20 4 20 -8
0 -20 -9 -27 -20z"/>
<path d="M516 815 c4 -10 0 -15 -14 -15 -11 0 -22 -6 -25 -14 -4 -11 2 -12 34
-4 40 11 51 31 23 42 -22 9 -24 8 -18 -9z"/>
<path d="M332 787 c-16 -44 -15 -47 7 -47 15 0 20 9 23 40 4 49 -13 53 -30 7z"/>
<path d="M565 810 c-3 -5 -1 -10 4 -10 6 0 11 5 11 10 0 6 -2 10 -4 10 -3 0
-8 -4 -11 -10z"/>
<path d="M883 797 c0 -7 -3 -22 -7 -34 -6 -19 -4 -23 12 -23 11 0 23 7 26 16
9 22 8 24 -10 24 -8 0 -13 4 -9 9 3 5 2 12 -3 15 -5 3 -9 0 -9 -7z"/>
<path d="M715 745 c25 -9 104 -12 99 -4 -3 5 -29 9 -57 8 -29 0 -47 -2 -42 -4z"/>
<path d="M627 723 c4 -11 3 -14 -5 -9 -8 5 -11 -1 -10 -18 3 -30 10 -32 32
-11 14 14 14 18 -2 35 -20 24 -23 25 -15 3z"/>
<path d="M553 715 c-22 -9 -33 -21 -33 -35 0 -18 3 -19 21 -10 11 6 18 17 16
23 -2 7 8 17 22 24 14 6 22 12 16 12 -5 0 -25 -6 -42 -14z"/>
<path d="M307 713 c-4 -3 -7 -11 -7 -17 0 -6 5 -5 12 2 6 6 9 14 7 17 -3 3 -9
2 -12 -2z"/>
<path d="M982 685 c-14 -30 -12 -31 10 -5 10 10 14 22 9 24 -4 3 -13 -6 -19
-19z"/>
<path d="M1190 694 c0 -8 5 -12 10 -9 6 3 10 -2 10 -13 0 -22 28 -49 50 -48
10 1 15 13 17 41 0 22 -1 30 -4 18 -6 -29 -14 -29 -43 2 -27 29 -40 32 -40 9z"/>
<path d="M215 691 c-3 -5 -2 -12 3 -15 5 -3 9 1 9 9 0 17 -3 19 -12 6z"/>
<path d="M850 681 c0 -10 9 -21 20 -24 23 -6 26 8 6 29 -19 19 -26 18 -26 -5z"/>
<path d="M309 663 c-13 -16 -12 -17 4 -4 9 7 17 15 17 17 0 8 -8 3 -21 -13z"/>
<path d="M455 670 c-8 -13 5 -13 25 0 13 8 13 10 -2 10 -9 0 -20 -4 -23 -10z"/>
<path d="M185 659 c-11 -17 1 -21 15 -4 8 9 8 15 2 15 -6 0 -14 -5 -17 -11z"/>
<path d="M1061 641 c-8 -5 -10 -14 -7 -20 4 -6 12 -9 17 -6 5 4 9 1 9 -4 0 -6
5 -11 10 -11 14 0 12 26 -3 38 -7 6 -18 7 -26 3z"/>
<path d="M307 633 c-12 -12 -7 -33 8 -33 17 0 19 9 7 28 -5 7 -11 9 -15 5z"/>
<path d="M835 630 c3 -5 8 -10 11 -10 2 0 4 5 4 10 0 6 -5 10 -11 10 -5 0 -7
-4 -4 -10z"/>
<path d="M955 619 c-4 -6 -5 -12 -2 -15 2 -3 7 2 10 11 7 17 1 20 -8 4z"/>
<path d="M1110 591 c0 -5 5 -13 10 -16 6 -3 10 -2 10 4 0 5 -4 13 -10 16 -5 3
-10 2 -10 -4z"/>
<path d="M660 585 c0 -4 8 -14 18 -22 16 -14 16 -14 -1 -9 -16 5 -16 4 -1 -19
21 -33 24 -32 24 12 0 20 -3 33 -7 30 -3 -4 -12 -2 -20 4 -7 6 -13 8 -13 4z"/>
<path d="M944 582 c-15 -10 -39 -57 -25 -48 21 13 11 -2 -25 -41 -30 -31 -33
-39 -19 -41 10 -2 21 2 26 10 5 7 9 9 9 3 0 -5 6 0 14 11 8 11 13 35 12 53 -2
26 1 32 15 28 10 -3 20 1 23 9 3 9 0 11 -11 7 -11 -4 -14 -2 -9 5 8 14 6 15
-10 4z"/>
<path d="M1167 564 c4 -22 2 -26 -6 -14 -9 13 -11 13 -11 -2 0 -33 12 -48 41
-48 19 0 29 -5 29 -15 0 -20 16 -19 24 0 3 10 -11 33 -38 62 -43 45 -44 45
-39 17z"/>
<path d="M567 549 c4 -13 8 -18 11 -10 2 7 -1 18 -6 23 -8 8 -9 4 -5 -13z"/>
<path d="M211 523 c-15 -54 -14 -63 10 -63 19 0 20 4 13 48 -3 26 -8 49 -10
50 -1 2 -7 -13 -13 -35z"/>
<path d="M315 549 c-4 -6 -5 -13 -2 -16 7 -7 27 6 27 18 0 12 -17 12 -25 -2z"/>
<path d="M1325 550 c3 -5 13 -10 21 -10 8 0 12 5 9 10 -3 6 -13 10 -21 10 -8
0 -12 -4 -9 -10z"/>
<path d="M772 529 c-15 -23 -11 -33 10 -27 9 2 12 11 9 26 l-6 22 -13 -21z"/>
<path d="M546 525 c4 -8 8 -15 10 -15 2 0 4 7 4 15 0 8 -4 15 -10 15 -5 0 -7
-7 -4 -15z"/>
<path d="M120 500 c0 -5 5 -10 10 -10 6 0 10 5 10 10 0 6 -4 10 -10 10 -5 0
-10 -4 -10 -10z"/>
<path d="M1340 503 c0 -15 18 -35 23 -27 3 5 -1 15 -9 22 -8 7 -14 9 -14 5z"/>
<path d="M310 495 c0 -2 8 -21 18 -44 17 -37 20 -39 37 -27 14 10 15 15 5 21
-9 6 -11 4 -5 -5 5 -8 4 -11 -2 -7 -6 4 -8 17 -6 30 4 20 0 25 -21 29 -14 3
-26 4 -26 3z"/>
<path d="M1160 455 c0 -8 2 -15 4 -15 2 0 6 7 10 15 3 8 1 15 -4 15 -6 0 -10
-7 -10 -15z"/>
<path d="M1404 452 c4 -7 2 -12 -3 -12 -6 0 -11 -7 -11 -15 0 -8 7 -15 15 -15
7 0 19 -8 24 -17 6 -10 10 -13 10 -8 0 6 -6 19 -14 29 -8 10 -12 22 -10 27 3
4 0 11 -6 15 -8 4 -9 3 -5 -4z"/>
<path d="M625 408 c0 -15 3 -28 7 -28 5 0 8 12 8 26 0 14 4 23 10 19 6 -3 10
-2 10 4 0 5 -8 9 -18 8 -13 -1 -18 -9 -17 -29z"/>
<path d="M1260 430 c0 -5 5 -10 10 -10 6 0 10 5 10 10 0 6 -4 10 -10 10 -5 0
-10 -4 -10 -10z"/>
<path d="M100 408 c0 -19 2 -20 10 -8 13 19 13 30 0 30 -5 0 -10 -10 -10 -22z"/>
<path d="M785 420 c-3 -5 -2 -10 4 -10 5 0 13 5 16 10 3 6 2 10 -4 10 -5 0
-13 -4 -16 -10z"/>
<path d="M1285 411 c-8 -26 -3 -34 19 -29 12 2 13 7 2 27 l-14 24 -7 -22z"/>
<path d="M1089 383 c-13 -21 -27 -43 -31 -49 -4 -7 -1 -18 8 -25 13 -11 14 -9
8 15 -6 25 -5 28 14 22 15 -5 24 -1 33 16 8 15 9 23 1 26 -6 2 -8 10 -5 18 10
26 -5 14 -28 -23z"/>
<path d="M66 384 c-9 -8 -16 -23 -16 -32 0 -15 2 -15 10 -2 33 48 35 64 6 34z"/>
<path d="M870 364 c0 -8 4 -13 9 -10 5 4 12 0 14 -6 3 -7 6 -3 6 10 1 13 -5
22 -14 22 -8 0 -15 -7 -15 -16z"/>
<path d="M407 364 c-27 -28 12 -68 59 -61 18 3 34 2 34 -2 0 -11 49 -1 56 10
6 10 -23 13 -70 10 -21 -2 -35 5 -50 24 -12 14 -25 23 -29 19z"/>
<path d="M1440 361 c0 -6 4 -13 10 -16 6 -3 7 1 4 9 -7 18 -14 21 -14 7z"/>
<path d="M1201 346 c-9 -11 -6 -12 14 -8 14 2 25 8 25 13 0 14 -26 11 -39 -5z"/>
<path d="M1295 340 c3 -5 8 -10 11 -10 2 0 4 5 4 10 0 6 -5 10 -11 10 -5 0 -7
-4 -4 -10z"/>
<path d="M710 328 c0 -7 -3 -23 -6 -35 -5 -17 -2 -23 10 -23 12 0 16 9 16 35
0 19 -4 35 -10 35 -5 0 -10 -6 -10 -12z"/>
<path d="M293 313 c-24 -8 14 -33 49 -32 l33 1 -30 10 c-16 6 -32 14 -35 18
-3 4 -11 5 -17 3z"/>
<path d="M763 312 c-9 -6 -4 -15 17 -34 29 -25 43 -25 18 0 -9 9 -9 12 1 12 7
0 9 5 6 10 -5 8 -12 7 -23 -2 -13 -11 -15 -10 -9 5 7 19 7 20 -10 9z"/>
<path d="M945 310 c3 -5 8 -10 11 -10 2 0 4 5 4 10 0 6 -5 10 -11 10 -5 0 -7
-4 -4 -10z"/>
<path d="M1184 299 c0 -18 22 -15 29 5 3 6 -3 12 -12 12 -9 0 -17 -8 -17 -17z"/>
<path d="M150 302 c1 -32 49 -42 58 -12 3 8 1 12 -3 8 -4 -4 -18 -3 -31 2 -13
5 -24 6 -24 2z"/>
<path d="M1431 278 c0 -33 0 -33 12 -8 6 14 16 28 22 32 5 4 0 8 -12 8 -19 0
-23 -5 -22 -32z"/>
<path d="M475 290 c-3 -5 -1 -10 4 -10 6 0 11 5 11 10 0 6 -2 10 -4 10 -3 0
-8 -4 -11 -10z"/>
<path d="M1240 280 c0 -13 7 -20 20 -20 24 0 27 25 4 34 -23 9 -24 8 -24 -14z"/>
<path d="M1147 273 c-10 -9 -9 -23 2 -23 5 0 11 7 15 15 5 15 -5 20 -17 8z"/>
<path d="M618 252 c-16 -9 -28 -23 -29 -32 0 -10 -2 -11 -6 -2 -8 19 -22 14
-16 -6 5 -22 91 -47 123 -37 11 4 20 2 20 -4 0 -6 20 -11 48 -11 35 0 43 3 32
11 -12 8 -12 10 5 8 36 -3 45 1 45 17 0 13 -8 15 -37 10 -82 -12 -118 -10
-147 9 l-29 19 23 6 c13 3 25 12 28 20 3 13 2 13 -7 0 -7 -10 -11 -11 -11 -2
0 16 -9 15 -42 -6z"/>
<path d="M822 258 c5 -15 28 -18 29 -3 0 6 -7 12 -17 13 -10 3 -15 -1 -12 -10z"/>
<path d="M867 254 c-4 -4 -7 -14 -7 -23 0 -11 3 -12 11 -4 6 6 10 16 7 23 -2
6 -7 8 -11 4z"/>
<path d="M1165 249 c-11 -17 1 -21 15 -4 8 9 8 15 2 15 -6 0 -14 -5 -17 -11z"/>
<path d="M936 225 c-9 -14 -12 -25 -6 -25 5 0 10 5 10 10 0 6 9 10 21 10 11 0
19 5 17 12 -8 22 -25 19 -42 -7z"/>
<path d="M1110 230 c-11 -7 -12 -14 -4 -27 6 -9 16 -19 23 -21 10 -3 10 0 2
17 -7 12 -9 26 -6 31 8 12 4 12 -15 0z"/>
<path d="M40 206 c0 -2 8 -10 18 -17 15 -13 16 -12 3 4 -13 16 -21 21 -21 13z"/>
<path d="M1060 190 c-13 -8 -12 -10 3 -10 9 0 17 5 17 10 0 12 -1 12 -20 0z"/>
<path d="M455 156 c-18 -30 -18 -31 0 -16 17 14 18 13 12 -3 -4 -11 -3 -16 3
-12 6 3 10 12 10 20 0 8 7 18 16 23 14 8 14 10 -3 14 -15 4 -25 -3 -38 -26z"/>
<path d="M1380 181 c0 -7 -5 -9 -12 -5 -7 5 -8 3 -3 -5 5 -9 10 -10 18 -2 6 6
8 14 4 18 -4 3 -7 1 -7 -6z"/>
<path d="M110 170 c0 -5 5 -10 11 -10 5 0 7 5 4 10 -3 6 -8 10 -11 10 -2 0 -4
-4 -4 -10z"/>
<path d="M277 173 c18 -2 50 -2 70 0 21 2 7 4 -32 4 -38 0 -55 -2 -38 -4z"/>
<path d="M1016 145 c-15 -23 -15 -25 -1 -25 10 0 13 5 9 12 -5 7 -2 9 8 5 12
-4 14 -1 11 14 -7 24 -7 24 -27 -6z"/>
<path d="M1208 143 c6 -2 18 -2 25 0 6 3 1 5 -13 5 -14 0 -19 -2 -12 -5z"/>
<path d="M490 121 c0 -13 39 -35 48 -27 3 3 0 6 -6 6 -6 0 -18 7 -26 16 -9 8
-16 11 -16 5z"/>
<path d="M560 116 c0 -2 7 -6 15 -10 8 -3 15 -1 15 4 0 6 -7 10 -15 10 -8 0
-15 -2 -15 -4z"/>
<path d="M640 90 c0 -5 5 -10 11 -10 5 0 7 5 4 10 -3 6 -8 10 -11 10 -2 0 -4
-4 -4 -10z"/>
<path d="M916 85 c-24 -18 -21 -18 29 0 32 11 35 14 15 14 -14 0 -34 -6 -44
-14z"/>
<path d="M700 86 c0 -9 40 -13 46 -5 3 5 -6 9 -20 9 -14 0 -26 -2 -26 -4z"/>
<path d="M825 71 c3 -6 -26 -10 -71 -9 -41 0 -78 -3 -81 -6 -4 -3 35 -6 85 -6
77 0 90 2 86 15 -4 8 -10 15 -16 15 -5 0 -7 -4 -3 -9z"/>
</g>
</svg>
